<svg width="1300" height="1300" viewBox="0 0 1300 1300" fill="none" xmlns="http://www.w3.org/2000/svg">
<circle cx="650" cy="650" r="617.5" stroke="#27374C" stroke-width="65"/>
<path d="M1104.96 390.717C988.054 385.913 1029.87 366.976 931.061 664.688C832.254 962.401 792.014 910.671 627.01 916.757" stroke="#27374C" stroke-width="88"/>
<path d="M748.902 377.872L1085.8 388.041" stroke="#27374C" stroke-width="85"/>
<path d="M611.966 590.102L719.446 589.096L686.031 709.414L578.576 710.42L611.966 590.102Z" fill="#27374C"/>
<path d="M194.049 910.51C302.952 934.335 308.075 829.01 359.249 656.114C410.423 483.217 419.893 355.08 705.559 377.701" stroke="#27374C" stroke-width="87"/>
<path d="M589.011 915.757L230.482 913.832" stroke="#27374C" stroke-width="88"/>
<path d="M425.011 871.758C425.011 898.267 384.401 915.758 356.511 915.758C328.62 915.758 306.011 894.267 306.011 867.758C306.011 841.248 337.12 799.758 365.011 799.758C358.011 847.758 383.011 871.758 425.011 871.758Z" fill="#27374C"/>
</svg>
