<svg width="1030" height="1030" viewBox="0 0 1030 1030" fill="none" xmlns="http://www.w3.org/2000/svg">
<rect x="7.5" y="7.5" width="1015" height="1015" stroke="white" stroke-width="15"/>
<path d="M459.509 200.38C133.756 198.495 115.542 658.465 503.245 630.481" stroke="white" stroke-width="86"/>
<line x1="466.556" y1="632.036" x2="610.469" y2="627.01" stroke="white" stroke-width="85"/>
<path d="M438.868 190.5L642.654 323.592" stroke="white" stroke-width="82"/>
<path d="M769.378 182.935L595.032 326.982" stroke="white" stroke-width="82"/>
<path d="M785.255 150L784.677 671.971" stroke="white" stroke-width="83"/>
<line x1="204" y1="767" x2="631" y2="767" stroke="white" stroke-width="12"/>
<line x1="704.023" y1="766.602" x2="827.022" y2="767.068" stroke="white" stroke-width="12"/>
<circle cx="667" cy="763" r="20" fill="white"/>
<path d="M230.784 854.224C228.403 853.413 225.565 853.008 222.272 853.008C213.912 853.008 209.732 859.215 209.732 871.628C209.732 883.281 214.039 889.108 222.652 889.108C224.881 889.108 227.187 888.677 229.568 887.816C232 886.904 233.875 885.992 235.192 885.08L237.092 883.788L241.272 890.628C241.069 890.831 240.765 891.135 240.36 891.54C239.955 891.895 239.068 892.553 237.7 893.516C236.383 894.479 234.989 895.315 233.52 896.024C232.051 896.733 230.201 897.392 227.972 898C225.793 898.608 223.589 898.912 221.36 898.912C213.608 898.912 207.604 896.632 203.348 892.072C199.143 887.461 197.04 880.773 197.04 872.008C197.04 863.141 199.345 856.175 203.956 851.108C208.567 846.041 214.799 843.508 222.652 843.508C225.388 843.508 228.225 843.812 231.164 844.42C234.103 844.977 236.357 845.56 237.928 846.168L240.36 847.08L239.98 861.52H232.532L230.784 854.224ZM277.93 891.388V898H254.598V891.388L260.298 889.488V853.388L254.598 851.108V844.8L277.93 844.42V851.108L272.078 853.388V865.928H291.99V853.388L286.138 851.108V844.8L309.47 844.42V851.108L303.77 853.388V889.488L309.47 891.388V898H286.138V891.388L291.99 889.488V874.82H272.078V889.488L277.93 891.388ZM346.482 891.388V898H323.53V891.388L329.23 889.488V853.388L323.53 851.108V844.8L341.01 844.42H346.786C353.119 844.42 357.983 845.737 361.378 848.372C364.823 850.956 366.546 854.807 366.546 859.924C366.546 866.663 363.683 871.451 357.958 874.288C359.224 875.757 360.288 877.404 361.15 879.228L366.242 889.64L371.41 891.388V898H357.35L350.966 883.94C349.598 880.9 348.508 878.975 347.698 878.164C346.938 877.353 345.595 876.948 343.67 876.948H341.01V889.488L346.482 891.388ZM341.01 853.388V868.968H345.342C348.331 868.968 350.662 868.284 352.334 866.916C354.006 865.497 354.842 863.521 354.842 860.988C354.842 858.708 354.158 856.884 352.79 855.516C351.422 854.097 349.572 853.388 347.242 853.388H341.01ZM406.346 891.388V898H383.166V891.388L388.866 889.488V853.388L383.166 851.108V844.8L406.346 844.42V851.108L400.646 853.388V889.488L406.346 891.388ZM429.678 881.508L430.818 887.892C432.844 888.956 435.327 889.488 438.266 889.488C440.85 889.488 443.028 888.956 444.802 887.892C446.575 886.777 447.462 885.257 447.462 883.332C447.462 881.964 446.828 880.773 445.562 879.76C444.295 878.747 442.699 877.961 440.774 877.404C438.899 876.847 436.847 876.112 434.618 875.2C432.388 874.237 430.311 873.224 428.386 872.16C426.511 871.045 424.94 869.424 423.674 867.296C422.407 865.117 421.774 862.559 421.774 859.62C421.774 854.503 423.547 850.551 427.094 847.764C430.691 844.927 435.352 843.508 441.078 843.508C443.611 843.508 446.271 843.761 449.058 844.268C451.844 844.775 453.998 845.281 455.518 845.788L457.798 846.548L457.418 860.38H450.426L448.526 853.92C446.246 853.16 444.016 852.78 441.838 852.78C439.254 852.78 437.252 853.287 435.834 854.3C434.466 855.313 433.782 856.605 433.782 858.176C433.782 859.544 434.415 860.735 435.682 861.748C436.948 862.761 438.519 863.572 440.394 864.18C442.319 864.737 444.371 865.472 446.55 866.384C448.779 867.296 450.831 868.284 452.706 869.348C454.631 870.412 456.227 871.983 457.494 874.06C458.76 876.137 459.394 878.569 459.394 881.356C459.394 886.879 457.468 891.211 453.618 894.352C449.818 897.443 444.903 898.988 438.874 898.988C436.34 898.988 433.655 898.735 430.818 898.228C427.98 897.772 425.776 897.291 424.206 896.784L421.926 896.1V881.508H429.678ZM496.065 891.388V898H474.405V891.388L480.105 889.488V853.388L474.405 851.108V844.8L494.013 844.42L505.413 869.728L517.345 844.8L535.585 844.42V851.108L530.113 853.388V889.488L535.813 891.388V898H513.165V891.388L519.093 889.488V860.684C518.181 863.065 517.117 865.548 515.901 868.132C514.736 870.665 513.393 873.452 511.873 876.492C510.404 879.481 509.264 881.837 508.453 883.56L500.245 883.94L491.505 865.928L490.213 861.976V889.488L496.065 891.388ZM581.941 844.42L598.281 889.64L603.601 891.388V898H579.433V891.388L585.133 889.64L583.309 883.94H566.437L564.537 889.564L570.465 891.388V898H547.513V891.388L553.061 889.64L569.781 844.648L581.941 844.42ZM575.101 857.796L569.097 875.808H580.801L575.101 857.796ZM638.844 891.388V898H615.892V891.388L621.592 889.488V853.388L615.892 851.108V844.8L633.372 844.42H639.148C645.481 844.42 650.345 845.737 653.74 848.372C657.185 850.956 658.908 854.807 658.908 859.924C658.908 866.663 656.045 871.451 650.32 874.288C651.587 875.757 652.651 877.404 653.512 879.228L658.604 889.64L663.772 891.388V898H649.712L643.328 883.94C641.96 880.9 640.871 878.975 640.06 878.164C639.3 877.353 637.957 876.948 636.032 876.948H633.372V889.488L638.844 891.388ZM633.372 853.388V868.968H637.704C640.693 868.968 643.024 868.284 644.696 866.916C646.368 865.497 647.204 863.521 647.204 860.988C647.204 858.708 646.52 856.884 645.152 855.516C643.784 854.097 641.935 853.388 639.604 853.388H633.372ZM709.652 854.224C707.271 853.413 704.434 853.008 701.14 853.008C692.78 853.008 688.6 859.215 688.6 871.628C688.6 883.281 692.907 889.108 701.52 889.108C703.75 889.108 706.055 888.677 708.436 887.816C710.868 886.904 712.743 885.992 714.06 885.08L715.96 883.788L720.14 890.628C719.938 890.831 719.634 891.135 719.228 891.54C718.823 891.895 717.936 892.553 716.568 893.516C715.251 894.479 713.858 895.315 712.388 896.024C710.919 896.733 709.07 897.392 706.84 898C704.662 898.608 702.458 898.912 700.228 898.912C692.476 898.912 686.472 896.632 682.216 892.072C678.011 887.461 675.908 880.773 675.908 872.008C675.908 863.141 678.214 856.175 682.824 851.108C687.435 846.041 693.667 843.508 701.52 843.508C704.256 843.508 707.094 843.812 710.032 844.42C712.971 844.977 715.226 845.56 716.796 846.168L719.228 847.08L718.848 861.52H711.4L709.652 854.224ZM752.466 853.388V866.08H767.818V874.44H752.466V889.108H765.918L767.666 882.8H774.658V898H734.986V891.388L740.686 889.488V853.388L734.986 851.108V844.8L752.466 844.42H773.746V859.088H766.678L764.778 853.388H752.466ZM806.727 853.388V889.108H818.355L820.027 880.52H827.247V898H789.247V891.388L794.947 889.488V853.388L789.247 851.108V844.8L812.427 844.42V851.108L806.727 853.388Z" fill="white"/>
</svg>
